<?xml version="1.0" encoding="UTF-8" standalone="no"?>
<!-- Created with Inkscape (http://www.inkscape.org/) -->

<svg
   width="170mm"
   height="54mm"
   viewBox="0 0 170 54"
   version="1.1"
   id="svg1"
   xml:space="preserve"
   inkscape:version="1.3.2 (091e20ef0f, 2023-11-25)"
   sodipodi:docname="logo.svg"
   xmlns:inkscape="http://www.inkscape.org/namespaces/inkscape"
   xmlns:sodipodi="http://sodipodi.sourceforge.net/DTD/sodipodi-0.dtd"
   xmlns="http://www.w3.org/2000/svg"
   xmlns:svg="http://www.w3.org/2000/svg"><sodipodi:namedview
     id="namedview1"
     pagecolor="#ffffff"
     bordercolor="#000000"
     borderopacity="0.25"
     inkscape:showpageshadow="2"
     inkscape:pageopacity="0.0"
     inkscape:pagecheckerboard="0"
     inkscape:deskcolor="#d1d1d1"
     inkscape:document-units="mm"
     inkscape:zoom="1.4431818"
     inkscape:cx="329.82677"
     inkscape:cy="198.17323"
     inkscape:window-width="1920"
     inkscape:window-height="1043"
     inkscape:window-x="0"
     inkscape:window-y="0"
     inkscape:window-maximized="1"
     inkscape:current-layer="layer1" /><defs
     id="defs1" /><g
     inkscape:label="Capa 1"
     inkscape:groupmode="layer"
     id="layer1"><rect
       style="fill:#ffffff;fill-opacity:1;stroke-width:0.405117"
       id="rect5"
       width="170"
       height="54"
       x="0"
       y="0" /><path
       style="fill:#394ea0;fill-opacity:1;stroke-width:0.992586"
       d="M 0,26.999995 V 0 h 85 85 V 26.999995 54 H 85 0 Z m 29.241142,24.018549 c 4.862393,-0.400439 10.702552,-3.737187 14.062728,-8.034667 2.16802,-2.772787 3.553648,-6.306431 4.408571,-11.242787 0.290651,-1.678228 0.117686,-1.741093 -4.790437,-1.741093 -3.246148,0 -4.361052,0.08213 -4.428711,0.326087 -0.04973,0.179347 -0.233711,1.081701 -0.408842,2.005224 -0.175131,0.923532 -0.593859,2.214839 -0.930508,2.869568 -0.87816,1.707897 -3.486445,4.052084 -5.616007,5.047366 -1.710893,0.799616 -1.942654,0.83871 -4.971833,0.83871 -3.072896,0 -3.236734,-0.02889 -4.986648,-0.878464 -2.167543,-1.052359 -4.829866,-3.537974 -5.689087,-5.311476 -0.881432,-1.819349 -1.233105,-4.592116 -0.845606,-6.667185 0.44593,-2.387965 1.311325,-3.89291 3.287351,-5.716805 1.846381,-1.704228 3.828151,-2.775291 5.976061,-3.22981 2.220676,-0.46991 2.233912,-0.504034 2.043831,-5.268053 -0.09066,-2.272164 -0.244347,-4.2581509 -0.341531,-4.4133021 -0.23325,-0.3723886 -3.786526,-0.1031417 -5.954667,0.4512061 -3.116465,0.796817 -6.873415,3.074058 -9.171753,5.559367 -1.3521046,1.462095 -3.7176052,5.099098 -4.410034,6.780521 -2.0830907,5.058339 -1.8393479,12.349393 0.5712145,17.086692 2.2625285,4.446381 7.2343635,9.022485 11.3295705,10.427799 1.814638,0.622715 7.033732,1.431403 8.460342,1.310918 0.436237,-0.03687 1.518934,-0.126756 2.405995,-0.199816 z M 139.97334,47.850929 c 0.23669,-0.233545 0.41547,-0.850936 0.41547,-1.434784 v -1.024841 h -1.18974 c -0.88128,0 -1.18973,0.101446 -1.18973,0.3913 0,0.246303 0.25173,0.391309 0.67935,0.391309 0.55328,0 0.66367,0.10891 0.59486,0.586954 -0.0691,0.479928 -0.25179,0.586954 -1.00203,0.586954 -0.70948,0 -0.99659,-0.147885 -1.26618,-0.652175 -0.39364,-0.736318 -0.27554,-2.433635 0.20944,-3.010226 0.46044,-0.547427 1.51738,-0.469319 1.90345,0.140667 0.32583,0.514791 1.26058,0.734316 1.26058,0.296045 0,-0.124132 -0.24659,-0.534993 -0.54796,-0.913041 -0.69453,-0.871208 -2.48092,-0.970889 -3.33467,-0.186081 -1.07191,0.985362 -1.07654,3.503444 -0.009,4.650899 0.67337,0.723471 2.8115,0.83237 3.47569,0.17702 z m 2.53055,-0.633541 c 0,-1.388631 0.7206,-1.420606 1.45412,-0.06448 0.33136,0.612599 0.75305,1.008956 1.12951,1.061676 l 0.60074,0.0841 -0.58324,-1.184508 c -0.54854,-1.11405 -0.55675,-1.213386 -0.13807,-1.669887 0.56818,-0.619461 0.57195,-1.830205 0.008,-2.445476 -0.32883,-0.358516 -0.82157,-0.477068 -1.9829,-0.477068 h -1.54533 v 2.869568 c 0,2.695655 0.0321,2.869569 0.52877,2.869569 0.44064,0 0.52877,-0.173914 0.52877,-1.043485 z m 0,-2.886093 c 0,-1.038762 0.0172,-1.058373 0.85925,-0.978264 0.68123,0.06478 0.87815,0.213836 0.95046,0.71931 0.0993,0.694464 -0.53107,1.318963 -1.33147,1.318963 -0.38294,0 -0.47824,-0.211252 -0.47824,-1.060009 z m 7.4028,3.407835 c 0.45043,-0.444452 0.52877,-0.86957 0.52877,-2.869568 0,-2.173912 -0.0392,-2.347826 -0.52877,-2.347826 -0.48572,0 -0.5291,0.175245 -0.53282,2.152171 -0.002,1.183699 -0.10437,2.308319 -0.22698,2.499152 -0.12662,0.197075 -0.55319,0.30978 -0.98739,0.260866 l -0.76448,-0.08607 -0.076,-2.413038 c -0.0693,-2.198275 -0.1222,-2.413048 -0.59487,-2.413048 -0.47783,0 -0.51885,0.189167 -0.51885,2.392501 0,2.887325 0.27776,3.346627 2.02387,3.346627 0.79624,0 1.31102,-0.160101 1.67753,-0.521733 z m 2.37947,-0.487815 v -1.009548 l 1.2454,-0.138508 c 1.98112,-0.220333 2.8745,-1.864241 1.66284,-3.059781 -0.42031,-0.414716 -0.88128,-0.521742 -2.24728,-0.521742 h -1.71851 v 2.869568 c 0,2.695645 0.0321,2.869559 0.52878,2.869559 0.43768,0 0.52877,-0.173914 0.52877,-1.009548 z m 0,-2.903495 c 0,-1.006581 0.0309,-1.043475 0.87247,-1.043475 0.89763,0 1.507,0.382761 1.507,0.946584 0,0.56615 -0.80828,1.140375 -1.6052,1.140375 -0.72706,0 -0.77427,-0.06359 -0.77427,-1.043484 z m 7.95158,3.239857 c 0.52726,-0.553787 0.64095,-0.943361 0.64095,-2.196373 0,-1.955925 -0.73401,-2.869568 -2.30538,-2.869568 -1.61715,0 -2.32136,0.870527 -2.32136,2.869568 0,1.339186 0.10199,1.689567 0.64894,2.229245 0.91244,0.900303 2.4629,0.88503 3.33685,-0.03283 z m -2.65457,-0.614009 c -0.15052,-0.27752 -0.27368,-0.989592 -0.27368,-1.582364 0,-1.401508 0.38889,-2.086959 1.18404,-2.086959 0.82418,0 1.45981,0.908713 1.45981,2.086959 0,0.510059 -0.1852,1.188284 -0.41156,1.507164 -0.50993,0.718344 -1.58733,0.759705 -1.95861,0.07523 z M 70.72544,32.383041 c 1.212333,-0.543423 2.647366,-2.044918 3.256713,-3.407549 0.580531,-1.298189 0.55613,-5.287566 -0.04034,-6.596216 -1.143884,-2.509662 -3.198071,-3.84236 -5.937081,-3.851815 -2.81141,-0.0099 -4.607698,1.084373 -5.772753,3.516016 -0.512787,1.070263 -0.624943,1.725702 -0.624943,3.652167 0,1.926474 0.112156,2.581914 0.624943,3.652177 0.718689,1.500016 1.746932,2.539823 3.071292,3.105835 1.298258,0.554861 4.108449,0.518262 5.422174,-0.0706 z m -4.580907,-2.114616 c -1.367619,-0.846873 -1.988795,-2.51262 -1.842729,-4.941462 0.06903,-1.147781 0.309754,-2.340126 0.573077,-2.838501 0.922843,-1.746605 3.164458,-2.379052 4.84618,-1.367285 2.527051,1.520326 2.74824,6.861607 0.371959,8.98208 -0.843966,0.753108 -2.862665,0.837556 -3.948487,0.165168 z m 31.059939,1.974038 c 1.050125,-0.592505 1.106263,-0.598313 1.23109,-0.127298 0.108399,0.408978 0.380985,0.493524 1.591218,0.493524 h 1.46042 l -0.24594,-0.846105 c -0.13526,-0.465355 -0.24659,-2.725134 -0.2474,-5.02174 -0.002,-4.784822 -0.18813,-5.706984 -1.383966,-6.845112 -1.13709,-1.082233 -1.999276,-1.373999 -4.06017,-1.373999 -2.546156,0 -4.367285,0.916561 -5.287127,2.660958 -0.665453,1.261974 -0.510738,1.512961 0.932653,1.512961 1.066162,0 1.334332,-0.09396 1.469751,-0.514939 0.42725,-1.328251 2.938903,-2.063987 4.404302,-1.290153 0.612252,0.323307 1.282182,1.739121 1.282182,2.709753 0,0.653329 -0.02388,0.660566 -2.181185,0.662006 -2.609299,0.002 -3.870816,0.31049 -4.958523,1.213564 -1.092853,0.907342 -1.585025,1.92462 -1.585025,3.276101 0,2.514256 1.89956,4.120224 4.866622,4.114436 1.207887,-0.002 1.88605,-0.158435 2.711098,-0.623957 z m -3.517555,-1.718535 c -0.759522,-0.302425 -1.416311,-1.271233 -1.416311,-2.089149 0,-1.592538 1.41776,-2.343724 4.428454,-2.346367 l 1.652425,-0.002 v 1.246297 c 0,1.531852 -0.511298,2.304641 -1.951836,2.950112 -1.184375,0.530695 -1.838436,0.588699 -2.712732,0.240565 z m 41.060323,1.718535 c 1.05012,-0.592505 1.10626,-0.598313 1.23109,-0.127298 0.10839,0.408978 0.38098,0.493524 1.59121,0.493524 h 1.46042 l -0.24592,-0.846105 c -0.13527,-0.465355 -0.2466,-2.725134 -0.24741,-5.02174 -0.002,-4.784822 -0.18814,-5.706984 -1.38396,-6.845112 -1.13709,-1.082233 -1.99928,-1.373999 -4.06018,-1.373999 -2.54615,0 -4.36728,0.916561 -5.28713,2.660958 -0.66545,1.261974 -0.51073,1.512961 0.93266,1.512961 1.06616,0 1.33433,-0.09396 1.46975,-0.514939 0.42725,-1.328251 2.9389,-2.063987 4.40432,-1.290153 0.61224,0.323307 1.28216,1.739121 1.28216,2.709753 0,0.653329 -0.0239,0.660566 -2.18118,0.662006 -2.6093,0.002 -3.87082,0.31049 -4.95853,1.213564 -1.09285,0.907342 -1.58502,1.92462 -1.58502,3.276101 0,2.514256 1.89956,4.120224 4.86662,4.114436 1.20789,-0.002 1.88605,-0.158435 2.7111,-0.623957 z m -3.51756,-1.718535 c -0.75952,-0.302425 -1.41631,-1.271233 -1.41631,-2.089149 0,-1.592538 1.41776,-2.343724 4.42846,-2.346367 l 1.65242,-0.002 v 1.246297 c 0,1.531852 -0.51129,2.304641 -1.95183,2.950112 -1.18438,0.530695 -1.83844,0.588699 -2.71274,0.240565 z M 80.108865,22.826085 v -9.782613 h -1.321929 -1.321928 v 9.782613 9.782604 h 1.321928 1.321929 z m 6.345256,0 v -9.782613 h -1.321928 -1.321929 v 9.782613 9.782604 h 1.321929 1.321928 z m 20.622079,4.600793 v -5.181821 l 0.68025,-0.671195 c 1.25707,-1.240352 3.61002,-1.244059 4.59602,-0.0069 0.50286,0.63079 0.54022,1.036021 0.54022,5.859859 v 5.182215 h 1.45413 1.45411 V 27.54209 c 0,-5.03859 0.004,-5.071324 0.66812,-5.850384 1.23458,-1.4477 3.72512,-1.426097 4.63122,0.04023 0.46343,0.749944 0.51527,1.338022 0.51616,5.855412 l 9.9e-4,5.021739 h 1.32192 1.32193 l -10e-4,-5.152173 c -8.1e-4,-2.833699 -0.11862,-5.568259 -0.2618,-6.07679 -0.14318,-0.50854 -0.68451,-1.330282 -1.20295,-1.826093 -0.93056,-0.889941 -0.97249,-0.901467 -3.28022,-0.901467 -2.25337,0 -2.37708,0.03135 -3.4335,0.868979 l -1.09591,0.868989 -0.50863,-0.638027 c -0.7751,-0.972268 -1.87366,-1.302596 -3.94748,-1.186972 -1.38473,0.0772 -2.04455,0.249025 -2.64862,0.689692 -0.78936,0.575832 -0.80449,0.576916 -0.80449,0.05728 0,-0.461549 -0.16975,-0.529551 -1.32192,-0.529551 h -1.32193 v 6.913045 6.913045 h 1.32193 1.32192 z m 37.54277,0.146031 v -5.03578 l 0.88169,-0.843196 c 1.49684,-1.431501 3.94929,-1.368784 4.63612,0.118582 0.18928,0.409904 0.29868,2.505521 0.29868,5.721498 v 5.074676 h 1.47722 1.47723 l -0.0892,-5.413039 c -0.10027,-6.085566 -0.3187,-6.948934 -2.04509,-8.083513 -1.29292,-0.849723 -3.73091,-0.825172 -5.40752,0.05443 -1.17857,0.618317 -1.22912,0.623681 -1.22912,0.130433 0,-0.443368 -0.18254,-0.514397 -1.32193,-0.514397 h -1.32192 v 6.913035 6.913045 h 1.32192 1.32193 z m 14.80561,-1.877265 v -6.913035 h -1.32194 -1.32193 v 6.913035 6.913045 h 1.32193 1.32194 z M 52.498218,24.71739 c -0.07617,-0.466311 -0.269532,-1.766501 -0.429687,-2.889327 -0.37457,-2.626025 -1.05674,-4.556848 -2.395585,-6.780492 C 47.590672,11.589205 43.584822,8.0968227 39.578349,6.2468985 37.78165,5.4173086 34.545487,4.6956522 32.621982,4.6956522 h -1.17287 l 0.07249,4.3665769 0.07249,4.3665869 1.296997,0.182817 c 4.355098,0.613881 8.489019,4.87702 9.446772,9.742071 0.168837,0.857631 0.422802,1.706072 0.564366,1.885419 0.18888,0.239293 1.518628,0.326088 4.995938,0.326088 h 4.738549 z M 159.3717,16.121739 c 0.55952,-0.55208 0.37652,-1.723573 -0.34178,-2.187962 -1.37244,-0.887298 -2.96787,0.396673 -2.29731,1.84883 0.24476,0.530034 0.49036,0.652176 1.31149,0.652176 0.55568,0 1.1531,-0.140875 1.3276,-0.313044 z"
       id="path1" /></g></svg>
